<?xml version="1.0" encoding="utf-8"?>
<!-- Generator: Adobe Illustrator 23.1.0, SVG Export Plug-In . SVG Version: 6.00 Build 0)  -->
<svg version="1.1" id="Layer_1" xmlns="http://www.w3.org/2000/svg" xmlns:xlink="http://www.w3.org/1999/xlink" x="0px" y="0px"
	 viewBox="0 0 100 125" style="enable-background:new 0 0 100 125;" xml:space="preserve">
<style type="text/css">
	.st0{fill:url(#SVGID_1_);}
</style>
<linearGradient id="SVGID_1_" gradientUnits="userSpaceOnUse" x1="50.5" y1="108.9059" x2="50.5" y2="15.0941">
	<stop  offset="0" style="stop-color:#FFFFFF"/>
	<stop  offset="1" style="stop-color:#231F20"/>
</linearGradient>
<path image-rendering="auto" shape-rendering="auto" color-rendering="auto" class="st0" d="M50.5,15.1L50.5,15.1
	c-15.7,0-28.6,12.2-28.6,27.2c0,4.3,1.1,8.5,3.1,12.4c0,0,0,0.1,0.1,0.1c7.7,13,16.4,26.1,24.6,39c0.4,0.7,1.4,0.7,1.9,0
	c7.6-13.2,17-25.5,24.4-39c0,0,0,0,0,0c2.1-3.8,3.1-8.1,3.1-12.4v0c0-15-12.7-27.1-28.4-27.2C50.6,15.1,50.6,15.1,50.5,15.1
	L50.5,15.1z M50.5,24.4c9.7,0,17.6,7.9,17.6,17.6l0,0c0,9.7-7.9,17.6-17.6,17.6S32.9,51.7,32.9,42C32.9,32.3,40.8,24.4,50.5,24.4
	C50.5,24.4,50.5,24.4,50.5,24.4z M46.9,29.6c-0.5,0-0.9,0.3-1.1,0.8l-3.5,10.5h-3c-0.6,0-1.1,0.5-1.1,1.1c0,0.6,0.5,1.1,1.1,1.1h3.8
	c0.5,0,0.9-0.3,1.1-0.8l2.3-6.9l3,18c0.1,0.6,0.7,1,1.3,0.9c0.4-0.1,0.8-0.4,0.9-0.8l3.9-11.7l0.1,0.4c0.1,0.5,0.6,0.8,1.1,0.8h2.3
	c0.4,0.5,1,0.8,1.6,0.8c1.1,0,2-0.9,2-2c0-1.1-0.9-2-2-2c-0.7,0-1.3,0.3-1.6,0.9h-1.4l-0.9-3c-0.2-0.6-0.8-0.9-1.4-0.7
	c-0.3,0.1-0.6,0.4-0.7,0.7l-3.6,10.7l-3-18.1C48,30,47.5,29.6,46.9,29.6L46.9,29.6L46.9,29.6z M38,77.6c-0.6,0.6-1.3,1.2-1.8,1.9
	c-2.4,3.1-3.9,7-3.9,11.2c0,10,8.2,18.2,18.2,18.2c10,0,18.2-8.2,18.2-18.2c0-4.2-1.4-8.1-3.8-11.2c-0.6-0.7-1.2-1.4-1.8-2
	c-3.6,5.5-7.3,11-10.5,16.7c-0.8,1.4-2.9,1.4-3.7,0.1C45.3,88.8,41.6,83.2,38,77.6L38,77.6z"/>
</svg>
