<?xml version="1.0" encoding="utf-8"?>
<!-- Generator: Adobe Illustrator 23.1.0, SVG Export Plug-In . SVG Version: 6.00 Build 0)  -->
<svg version="1.1" id="Layer_1" xmlns="http://www.w3.org/2000/svg" xmlns:xlink="http://www.w3.org/1999/xlink" x="0px" y="0px"
	 viewBox="0 0 100 125" style="enable-background:new 0 0 100 125;" xml:space="preserve">
<style type="text/css">
	.st0{fill:url(#SVGID_1_);}
	.st1{fill:url(#SVGID_2_);}
	.st2{fill:url(#SVGID_3_);}
	.st3{fill:url(#SVGID_4_);}
	.st4{fill:url(#SVGID_5_);}
</style>
<g>
	<linearGradient id="SVGID_1_" gradientUnits="userSpaceOnUse" x1="50.2912" y1="55.3502" x2="50.2912" y2="39.4133">
		<stop  offset="0" style="stop-color:#FFE03D"/>
		<stop  offset="0" style="stop-color:#FFE73B"/>
		<stop  offset="0" style="stop-color:#FFEE3A"/>
		<stop  offset="0" style="stop-color:#FFF23A"/>
		<stop  offset="0" style="stop-color:#FDC60B"/>
		<stop  offset="0" style="stop-color:#FDC50D"/>
		<stop  offset="0" style="stop-color:#FCBF18"/>
		<stop  offset="0" style="stop-color:#FCBD1C"/>
		<stop  offset="0" style="stop-color:#FCBE18"/>
		<stop  offset="0" style="stop-color:#FBBB1E"/>
		<stop  offset="0" style="stop-color:#FBB91F"/>
		<stop  offset="0" style="stop-color:#F28F3F"/>
		<stop  offset="0" style="stop-color:#F6A533"/>
		<stop  offset="4.022072e-02" style="stop-color:#FDC60B"/>
		<stop  offset="0.5413" style="stop-color:#ED6F3B"/>
		<stop  offset="0.7982" style="stop-color:#ED693C"/>
		<stop  offset="1" style="stop-color:#E83E39"/>
	</linearGradient>
	<path class="st0" d="M60.2,54.2l-6.1-14.8l-0.9,0.9c-0.1,0.1-2.6,2.6-5.9-0.1l-0.9-0.7l-6,14.7c-0.2,0.4,0,0.9,0.4,1.1
		c0.4,0.2,0.9,0,1.1-0.4l5.2-12.7c1.1,0.7,2,0.9,3,0.9c-0.2,0.4-0.4,1-0.3,1.6c0,0.9,0.4,1.6,1.1,2.3c0.9,0.9,1.5,2.2,1.3,3.4
		c-0.1,0.7-0.4,1.8-1.7,2.6c-0.4,0.2-0.5,0.7-0.2,1.1c0.2,0.2,0.4,0.4,0.7,0.4c0.2,0,0.3,0,0.4-0.1c1.4-0.9,2.3-2.3,2.4-3.9
		c0.2-1.7-0.6-3.6-1.9-4.8c-0.4-0.4-0.6-0.7-0.6-1.1c0-0.8,0.6-1.6,0.7-1.6c0.1-0.1,0.2-0.2,0.2-0.3c0.4-0.2,0.8-0.3,1.1-0.6
		l5.2,12.6c0.1,0.3,0.4,0.5,0.8,0.5c0.1,0,0.2,0,0.3-0.1C60.2,55.1,60.4,54.6,60.2,54.2z"/>
	<linearGradient id="SVGID_2_" gradientUnits="userSpaceOnUse" x1="54.1397" y1="39.5376" x2="54.1397" y2="32.0532">
		<stop  offset="0" style="stop-color:#FFE03D"/>
		<stop  offset="0" style="stop-color:#FFE73B"/>
		<stop  offset="0" style="stop-color:#FFEE3A"/>
		<stop  offset="0" style="stop-color:#FFF23A"/>
		<stop  offset="0" style="stop-color:#FDC60B"/>
		<stop  offset="0" style="stop-color:#FDC50D"/>
		<stop  offset="0" style="stop-color:#FCBF18"/>
		<stop  offset="0" style="stop-color:#FCBD1C"/>
		<stop  offset="0" style="stop-color:#FCBE18"/>
		<stop  offset="0" style="stop-color:#FBBB1E"/>
		<stop  offset="0" style="stop-color:#FBB91F"/>
		<stop  offset="0" style="stop-color:#F28F3F"/>
		<stop  offset="0" style="stop-color:#F6A533"/>
		<stop  offset="4.022072e-02" style="stop-color:#FDC60B"/>
		<stop  offset="0.5413" style="stop-color:#ED6F3B"/>
		<stop  offset="0.7982" style="stop-color:#ED693C"/>
		<stop  offset="1" style="stop-color:#E83E39"/>
	</linearGradient>
	<path class="st1" d="M50.4,38.5c-0.1,0.4,0.1,0.9,0.6,1c0.1,0,0.2,0,0.2,0c0.4,0,0.7-0.2,0.8-0.6c0-0.1,1.5-5.2,5.2-5.2
		c0.5,0,0.8-0.4,0.8-0.8c0-0.5-0.4-0.8-0.8-0.8C52.2,32.1,50.4,38.2,50.4,38.5z"/>
	<linearGradient id="SVGID_3_" gradientUnits="userSpaceOnUse" x1="45.8265" y1="37.3947" x2="45.8265" y2="33.3223">
		<stop  offset="0" style="stop-color:#FFE03D"/>
		<stop  offset="0" style="stop-color:#FFE73B"/>
		<stop  offset="0" style="stop-color:#FFEE3A"/>
		<stop  offset="0" style="stop-color:#FFF23A"/>
		<stop  offset="0" style="stop-color:#FDC60B"/>
		<stop  offset="0" style="stop-color:#FDC50D"/>
		<stop  offset="0" style="stop-color:#FCBF18"/>
		<stop  offset="0" style="stop-color:#FCBD1C"/>
		<stop  offset="0" style="stop-color:#FCBE18"/>
		<stop  offset="0" style="stop-color:#FBBB1E"/>
		<stop  offset="0" style="stop-color:#FBB91F"/>
		<stop  offset="0" style="stop-color:#F28F3F"/>
		<stop  offset="0" style="stop-color:#F6A533"/>
		<stop  offset="4.022072e-02" style="stop-color:#FDC60B"/>
		<stop  offset="0.5413" style="stop-color:#ED6F3B"/>
		<stop  offset="0.7982" style="stop-color:#ED693C"/>
		<stop  offset="1" style="stop-color:#E83E39"/>
	</linearGradient>
	<path class="st2" d="M43.8,35c2.3-0.6,3.4,1.7,3.4,1.9c0.1,0.3,0.4,0.5,0.7,0.5c0.1,0,0.2,0,0.3-0.1c0.4-0.2,0.6-0.7,0.4-1.1
		c-0.6-1.3-2.4-3.5-5.3-2.8c-0.4,0.1-0.7,0.6-0.6,1C43,34.9,43.4,35.1,43.8,35z"/>
	<linearGradient id="SVGID_4_" gradientUnits="userSpaceOnUse" x1="51.5645" y1="34.0718" x2="51.5645" y2="27.2278">
		<stop  offset="0" style="stop-color:#FFE03D"/>
		<stop  offset="0" style="stop-color:#FFE73B"/>
		<stop  offset="0" style="stop-color:#FFEE3A"/>
		<stop  offset="0" style="stop-color:#FFF23A"/>
		<stop  offset="0" style="stop-color:#FDC60B"/>
		<stop  offset="0" style="stop-color:#FDC50D"/>
		<stop  offset="0" style="stop-color:#FCBF18"/>
		<stop  offset="0" style="stop-color:#FCBD1C"/>
		<stop  offset="0" style="stop-color:#FCBE18"/>
		<stop  offset="0" style="stop-color:#FBBB1E"/>
		<stop  offset="0" style="stop-color:#FBB91F"/>
		<stop  offset="0" style="stop-color:#F28F3F"/>
		<stop  offset="0" style="stop-color:#F6A533"/>
		<stop  offset="4.022072e-02" style="stop-color:#FDC60B"/>
		<stop  offset="0.5413" style="stop-color:#ED6F3B"/>
		<stop  offset="0.7982" style="stop-color:#ED693C"/>
		<stop  offset="1" style="stop-color:#E83E39"/>
	</linearGradient>
	<path class="st3" d="M50,34.1c0.1,0,0.1,0,0.2,0c0.4,0,0.7-0.3,0.8-0.7c0,0,0.5-2.6,2.6-4.7c0.3-0.3,0.3-0.8,0-1.2
		c-0.3-0.3-0.8-0.3-1.2,0c-2.5,2.5-3.1,5.5-3.1,5.6C49.2,33.6,49.5,34,50,34.1z"/>
</g>
<linearGradient id="SVGID_5_" gradientUnits="userSpaceOnUse" x1="50.5" y1="108.9059" x2="50.5" y2="15.0941">
	<stop  offset="0" style="stop-color:#FFF23A"/>
	<stop  offset="4.010540e-02" style="stop-color:#FEE62D"/>
	<stop  offset="0.1171" style="stop-color:#FED41A"/>
	<stop  offset="0.1964" style="stop-color:#FDC90F"/>
	<stop  offset="0.2809" style="stop-color:#FDC60B"/>
	<stop  offset="0.6685" style="stop-color:#F28F3F"/>
	<stop  offset="0.8876" style="stop-color:#ED693C"/>
	<stop  offset="1" style="stop-color:#E83E39"/>
</linearGradient>
<path image-rendering="auto" shape-rendering="auto" color-rendering="auto" class="st4" d="M50.5,15.1L50.5,15.1
	c-15.7,0-28.6,12.2-28.6,27.2c0,4.3,1.1,8.5,3.1,12.4c0,0,0,0.1,0.1,0.1c7.7,13,16.4,26.1,24.6,39c0.4,0.7,1.4,0.7,1.9,0
	c7.6-13.2,17-25.5,24.4-39c0,0,0,0,0,0c2.1-3.8,3.1-8.1,3.1-12.4v0c0-15-12.7-27.1-28.4-27.2C50.6,15.1,50.6,15.1,50.5,15.1
	L50.5,15.1z M50.5,24.4c9.7,0,17.6,7.9,17.6,17.6l0,0c0,9.7-7.9,17.6-17.6,17.6S32.9,51.7,32.9,42C32.9,32.3,40.8,24.4,50.5,24.4
	C50.5,24.4,50.5,24.4,50.5,24.4z M38,77.6c-0.6,0.6-1.3,1.2-1.8,1.9c-2.4,3.1-3.9,7-3.9,11.2c0,10,8.2,18.2,18.2,18.2
	c10,0,18.2-8.2,18.2-18.2c0-4.2-1.4-8.1-3.8-11.2c-0.6-0.7-1.2-1.4-1.8-2c-3.6,5.5-7.3,11-10.5,16.7c-0.8,1.4-2.9,1.4-3.7,0.1
	C45.3,88.8,41.6,83.2,38,77.6L38,77.6z"/>
</svg>
